<?xml version="1.0" encoding="UTF-8" standalone="no"?>
<svg
   viewBox="0 0 500 500"
   version="1.1"
   id="svg2"
   sodipodi:docname="dice-six-faces-one.svg"
   inkscape:version="1.2.2 (b0a8486541, 2022-12-01)"
   width="500"
   height="500"
   xmlns:inkscape="http://www.inkscape.org/namespaces/inkscape"
   xmlns:sodipodi="http://sodipodi.sourceforge.net/DTD/sodipodi-0.dtd"
   xmlns:xlink="http://www.w3.org/1999/xlink"
   xmlns="http://www.w3.org/2000/svg"
   xmlns:svg="http://www.w3.org/2000/svg">
  <defs
     id="defs2">
    <linearGradient
       id="linearGradient6"
       inkscape:collect="always">
      <stop
         style="stop-color:#ffc11a;stop-opacity:1;"
         offset="0.89947993"
         id="stop6" />
      <stop
         style="stop-color:#664900;stop-opacity:1;"
         offset="1"
         id="stop7" />
    </linearGradient>
    <linearGradient
       id="linearGradient1"
       inkscape:collect="always">
      <stop
         style="stop-color:#ff0000;stop-opacity:1;"
         offset="0"
         id="stop1" />
      <stop
         style="stop-color:#990000;stop-opacity:1;"
         offset="1"
         id="stop2" />
    </linearGradient>
    <linearGradient
       inkscape:collect="always"
       xlink:href="#linearGradient1"
       id="linearGradient2"
       x1="258.09412"
       y1="-5.1211953"
       x2="258.09412"
       y2="509.15421"
       gradientUnits="userSpaceOnUse" />
    <radialGradient
       inkscape:collect="always"
       xlink:href="#linearGradient6"
       id="radialGradient7"
       cx="255.40254"
       cy="256.80988"
       fx="255.40254"
       fy="256.80988"
       r="57.36227"
       gradientTransform="matrix(1,0,0,0.98968909,0,2.6479429)"
       gradientUnits="userSpaceOnUse" />
  </defs>
  <sodipodi:namedview
     id="namedview2"
     pagecolor="#ffffff"
     bordercolor="#000000"
     borderopacity="0.25"
     inkscape:showpageshadow="2"
     inkscape:pageopacity="0.0"
     inkscape:pagecheckerboard="0"
     inkscape:deskcolor="#d1d1d1"
     inkscape:zoom="8"
     inkscape:cx="224"
     inkscape:cy="21.375"
     inkscape:window-width="1920"
     inkscape:window-height="986"
     inkscape:window-x="-11"
     inkscape:window-y="-11"
     inkscape:window-maximized="1"
     inkscape:current-layer="svg2"
     showgrid="false" />
  <g
     id="g1"
     transform="matrix(1.0021962,0,0,1.0021962,-6.1187414,-7.1291099)">
    <path
       d="m 255.49023,200.03906 c -30.57562,0 -54.43941,21.72443 -57.22656,52.09571 -2.38315,25.96881 14.53375,51.22079 39.59961,59.11328 9.15513,2.88268 24.73313,3.1313 33.54688,0.53515 18.4286,-5.42822 32.57786,-18.65703 38.60742,-36.09765 3.67027,-10.61642 3.66216,-27.78559 -0.0195,-37.875 -8.55908,-23.45596 -29.21704,-37.77149 -54.50782,-37.77149 z"
       style="fill:url(#radialGradient7);stroke-width:14.3111;stroke-linecap:round;stroke-linejoin:round"
       id="path4" />
    <path
       d="M 255.57812,7.5117187 C 150.01472,7.5117188 44.451197,7.9744166 40.058594,8.9003906 26.725339,11.711084 15.151117,20.716721 9.0683594,33.013672 l -3.1972657,6.46289 V 256.8457 474.21289 l 3.1972657,6.46289 c 5.8829966,11.89311 16.7309466,20.6479 29.4746096,23.78516 8.036618,1.97846 423.232151,2.2953 432.554691,0.33008 13.33325,-2.81067 24.90941,-11.81827 30.99218,-24.11524 l 3.19727,-6.46289 V 256.8457 39.476562 l -3.19727,-6.46289 C 496.00707,20.716721 484.43091,11.711084 471.09766,8.9003906 466.70505,7.9744166 361.14153,7.5117187 255.57812,7.5117187 Z m -0.0879,192.5273413 c 25.2908,0 45.94873,14.31551 54.50782,37.77149 3.68169,10.08942 3.6898,27.25857 0.0195,37.875 -6.02957,17.44064 -20.1788,30.66942 -38.60742,36.09765 -8.81376,2.59615 -24.39174,2.34753 -33.54688,-0.53515 -25.06588,-7.89249 -41.98276,-33.14444 -39.59961,-59.11328 2.78715,-30.37131 26.6509,-52.09571 57.22656,-52.09571 z"
       style="fill:url(#linearGradient2);stroke-width:12.2702;stroke-linecap:round;stroke-linejoin:round"
       id="path2" />
  </g>
  <path
     style="fill:#ffffff;fill-opacity:0;stroke-width:1.02196;stroke-linecap:round;stroke-linejoin:round"
     d="M 0,256 V 0.51097804 H 256 512 V 256 511.48902 H 256 0 Z m 451.95667,217.85999 c 8.19808,-3.31053 16.27319,-10.98448 20.41789,-19.40356 l 3.346,-6.79669 V 256 64.340255 l -3.346,-6.79669 c -4.1447,-8.41908 -12.21981,-16.093025 -20.41789,-19.403552 l -5.87284,-2.37155 H 256 65.916168 l -5.911587,2.38605 C 51.719599,41.498519 43.009389,49.809418 39.24407,57.963278 l -2.964629,6.419956 V 256 447.61677 l 2.718819,5.79975 c 3.204451,6.83569 9.800107,14.31553 15.642384,17.73934 9.821774,5.75594 -0.728844,5.48254 203.403266,5.27076 l 188.03992,-0.19508 z"
     id="path5" />
</svg>
