<?xml version="1.0" encoding="UTF-8" standalone="no"?>
<svg
   viewBox="0 0 500 500"
   version="1.1"
   id="svg2"
   sodipodi:docname="dice-six-faces-six.svg"
   inkscape:version="1.3.2 (091e20e, 2023-11-25, custom)"
   width="500"
   height="500"
   xmlns:inkscape="http://www.inkscape.org/namespaces/inkscape"
   xmlns:sodipodi="http://sodipodi.sourceforge.net/DTD/sodipodi-0.dtd"
   xmlns:xlink="http://www.w3.org/1999/xlink"
   xmlns="http://www.w3.org/2000/svg"
   xmlns:svg="http://www.w3.org/2000/svg">
  <defs
     id="defs2">
    <linearGradient
       id="linearGradient3"
       inkscape:collect="always">
      <stop
         style="stop-color:#ff0000;stop-opacity:1;"
         offset="0"
         id="stop3" />
      <stop
         style="stop-color:#990000;stop-opacity:1;"
         offset="1"
         id="stop4" />
    </linearGradient>
    <linearGradient
       inkscape:collect="always"
       xlink:href="#linearGradient3"
       id="linearGradient4"
       x1="258.57455"
       y1="35.572044"
       x2="258.57455"
       y2="474.76767"
       gradientUnits="userSpaceOnUse" />
    <radialGradient
       inkscape:collect="always"
       xlink:href="#linearGradient6"
       id="radialGradient7"
       cx="255.40254"
       cy="256.80988"
       fx="255.40254"
       fy="256.80988"
       r="57.36227"
       gradientTransform="matrix(1,0,0,0.98968909,151.54256,-149.72645)"
       gradientUnits="userSpaceOnUse" />
    <linearGradient
       id="linearGradient6"
       inkscape:collect="always">
      <stop
         style="stop-color:#ffc11a;stop-opacity:1;"
         offset="0.89947993"
         id="stop6" />
      <stop
         style="stop-color:#664900;stop-opacity:1;"
         offset="1"
         id="stop7" />
    </linearGradient>
    <radialGradient
       inkscape:collect="always"
       xlink:href="#linearGradient6"
       id="radialGradient7-0"
       cx="255.40254"
       cy="256.80988"
       fx="255.40254"
       fy="256.80988"
       r="57.36227"
       gradientTransform="matrix(1,0,0,0.98968909,152.50863,2.1038898)"
       gradientUnits="userSpaceOnUse" />
    <radialGradient
       inkscape:collect="always"
       xlink:href="#linearGradient6"
       id="radialGradient7-4"
       cx="255.40254"
       cy="256.80988"
       fx="255.40254"
       fy="256.80988"
       r="57.36227"
       gradientTransform="matrix(1,0,0,0.98968909,152.65234,153.21367)"
       gradientUnits="userSpaceOnUse" />
    <radialGradient
       inkscape:collect="always"
       xlink:href="#linearGradient6"
       id="radialGradient7-3"
       cx="255.40254"
       cy="256.80988"
       fx="255.40254"
       fy="256.80988"
       r="57.36227"
       gradientTransform="matrix(1,0,0,0.98968909,151.54256,-149.72645)"
       gradientUnits="userSpaceOnUse" />
    <radialGradient
       inkscape:collect="always"
       xlink:href="#linearGradient6"
       id="radialGradient7-0-3"
       cx="255.40254"
       cy="256.80988"
       fx="255.40254"
       fy="256.80988"
       r="57.36227"
       gradientTransform="matrix(1,0,0,0.98968909,152.50863,2.1038898)"
       gradientUnits="userSpaceOnUse" />
    <radialGradient
       inkscape:collect="always"
       xlink:href="#linearGradient6"
       id="radialGradient7-4-2"
       cx="255.40254"
       cy="256.80988"
       fx="255.40254"
       fy="256.80988"
       r="57.36227"
       gradientTransform="matrix(1,0,0,0.98968909,152.65234,153.21367)"
       gradientUnits="userSpaceOnUse" />
  </defs>
  <sodipodi:namedview
     id="namedview2"
     pagecolor="#ffffff"
     bordercolor="#000000"
     borderopacity="0.25"
     inkscape:showpageshadow="2"
     inkscape:pageopacity="0.0"
     inkscape:pagecheckerboard="false"
     inkscape:deskcolor="#d1d1d1"
     inkscape:zoom="0.34595752"
     inkscape:cx="339.63708"
     inkscape:cy="588.22252"
     inkscape:window-width="1366"
     inkscape:window-height="697"
     inkscape:window-x="-8"
     inkscape:window-y="-8"
     inkscape:window-maximized="1"
     inkscape:current-layer="svg2" />
  <g
     id="g2"
     transform="matrix(1.1254219,0,0,1.1254219,-32.239739,-32.283651)" />
  <g
     id="g4" />
  <g
     id="g5"
     transform="translate(-302.94833,0.8356569)">
    <g
       id="g6"
       transform="translate(-6,-6)">
      <g
         id="g7">
        <path
           fill="#fff"
           d="M 73.856889,35.124162 A 38.732728,38.732728 0 0 0 35.124162,73.856889 V 439.05117 A 38.732728,38.732728 0 0 0 73.856889,477.7839 H 439.05117 A 38.732728,38.732728 0 0 0 477.7839,439.05117 V 73.856889 A 38.732728,38.732728 0 0 0 439.05117,35.124162 Z m 49.266021,36.247796 a 50.302243,50.302243 0 0 1 48.82335,50.272062 50.302243,50.302243 0 0 1 -100.604482,0 50.302243,50.302243 0 0 1 51.781132,-50.272062 z m 269.62002,0 a 50.302243,50.302243 0 0 1 48.82336,50.272062 50.302245,50.302245 0 0 1 -100.60449,0 50.302243,50.302243 0 0 1 51.78113,-50.272062 z M 121.64402,206.15179 a 50.302245,50.302245 0 0 1 0,100.60449 50.302245,50.302245 0 0 1 0,-100.60449 z m 269.62002,0 a 50.302245,50.302245 0 0 1 0,100.60449 50.302245,50.302245 0 0 1 0,-100.60449 z M 123.12291,340.99198 a 50.302243,50.302243 0 0 1 48.82335,50.27206 50.302243,50.302243 0 0 1 -100.604482,0 50.302243,50.302243 0 0 1 51.781132,-50.27206 z m 269.62002,0 a 50.302243,50.302243 0 0 1 48.82336,50.27206 50.302245,50.302245 0 0 1 -100.60449,0 50.302243,50.302243 0 0 1 51.78113,-50.27206 z"
           id="path2"
           style="fill:url(#linearGradient4);stroke:none;stroke-width:10.6627;stroke-dasharray:none;stroke-opacity:1"
           transform="matrix(1.1254219,0,0,1.1254219,270.70859,-33.119308)" />
        <path
           d="m 407.03279,47.664671 c -30.57562,0 -54.43941,21.72443 -57.22656,52.09571 -2.38315,25.968809 14.53375,51.220789 39.59961,59.113279 9.15513,2.88268 24.73313,3.1313 33.54688,0.53515 18.4286,-5.42822 32.57786,-18.65703 38.60742,-36.09765 3.67027,-10.61642 3.66216,-27.785589 -0.0195,-37.874999 -8.55908,-23.45596 -29.21704,-37.77149 -54.50782,-37.77149 z"
           style="fill:url(#radialGradient7);stroke-width:14.3111;stroke-linecap:round;stroke-linejoin:round"
           id="path4"
           transform="translate(302.94833,-0.83565685)" />
        <path
           d="m 407.99886,199.49501 c -30.57562,0 -54.43941,21.72443 -57.22656,52.09571 -2.38315,25.96881 14.53375,51.22079 39.59961,59.11328 9.15513,2.88268 24.73313,3.1313 33.54688,0.53515 18.4286,-5.42822 32.57786,-18.65703 38.60742,-36.09765 3.67027,-10.61642 3.66216,-27.78559 -0.0195,-37.875 -8.55908,-23.45596 -29.21704,-37.77149 -54.50782,-37.77149 z"
           style="fill:url(#radialGradient7-0);stroke-width:14.3111;stroke-linecap:round;stroke-linejoin:round"
           id="path4-0"
           transform="translate(302.94833,-0.83565685)" />
        <path
           d="m 408.14257,350.60479 c -30.57562,0 -54.43941,21.72443 -57.22656,52.09571 -2.38315,25.96881 14.53375,51.22079 39.59961,59.11328 9.15513,2.88268 24.73313,3.1313 33.54688,0.53515 18.4286,-5.42822 32.57786,-18.65703 38.60742,-36.09765 3.67027,-10.61642 3.66216,-27.78559 -0.0195,-37.875 -8.55908,-23.45596 -29.21704,-37.77149 -54.50782,-37.77149 z"
           style="fill:url(#radialGradient7-4);stroke-width:14.3111;stroke-linecap:round;stroke-linejoin:round"
           id="path4-8"
           transform="translate(302.94833,-0.83565685)" />
        <path
           d="m 407.03279,47.664671 c -30.57562,0 -54.43941,21.72443 -57.22656,52.09571 -2.38315,25.968809 14.53375,51.220789 39.59961,59.113279 9.15513,2.88268 24.73313,3.1313 33.54688,0.53515 18.4286,-5.42822 32.57786,-18.65703 38.60742,-36.09765 3.67027,-10.61642 3.66216,-27.785589 -0.0195,-37.874999 -8.55908,-23.45596 -29.21704,-37.77149 -54.50782,-37.77149 z"
           style="fill:url(#radialGradient7-3);stroke-width:14.3111;stroke-linecap:round;stroke-linejoin:round"
           id="path4-2" />
        <path
           d="m 407.99886,199.49501 c -30.57562,0 -54.43941,21.72443 -57.22656,52.09571 -2.38315,25.96881 14.53375,51.22079 39.59961,59.11328 9.15513,2.88268 24.73313,3.1313 33.54688,0.53515 18.4286,-5.42822 32.57786,-18.65703 38.60742,-36.09765 3.67027,-10.61642 3.66216,-27.78559 -0.0195,-37.875 -8.55908,-23.45596 -29.21704,-37.77149 -54.50782,-37.77149 z"
           style="fill:url(#radialGradient7-0-3);stroke-width:14.3111;stroke-linecap:round;stroke-linejoin:round"
           id="path4-0-9" />
        <path
           d="m 408.14257,350.60479 c -30.57562,0 -54.43941,21.72443 -57.22656,52.09571 -2.38315,25.96881 14.53375,51.22079 39.59961,59.11328 9.15513,2.88268 24.73313,3.1313 33.54688,0.53515 18.4286,-5.42822 32.57786,-18.65703 38.60742,-36.09765 3.67027,-10.61642 3.66216,-27.78559 -0.0195,-37.875 -8.55908,-23.45596 -29.21704,-37.77149 -54.50782,-37.77149 z"
           style="fill:url(#radialGradient7-4-2);stroke-width:14.3111;stroke-linecap:round;stroke-linejoin:round"
           id="path4-8-4" />
      </g>
    </g>
  </g>
</svg>
